<mxfile host="Electron" agent="Mozilla/5.0 (Windows NT 10.0; Win64; x64) AppleWebKit/537.36 (KHTML, like Gecko) draw.io/24.7.5 Chrome/126.0.6478.183 Electron/31.3.0 Safari/537.36" version="24.7.5" pages="2">
  <diagram id="Cqza6mO2Mo1P5i1oE0kj" name="Baustein">
    <mxGraphModel dx="1565" dy="486" grid="1" gridSize="10" guides="0" tooltips="1" connect="1" arrows="1" fold="1" page="1" pageScale="1" pageWidth="850" pageHeight="1100" math="0" shadow="0">
      <root>
        <mxCell id="0" />
        <mxCell id="1" parent="0" />
        <mxCell id="RTibFlnrJpwxqpMlr8ko-10" value="TrackMate" style="rounded=0;whiteSpace=wrap;align=left;verticalAlign=top;fontSize=18;" parent="1" vertex="1">
          <mxGeometry x="70" y="70" width="560" height="260" as="geometry" />
        </mxCell>
        <mxCell id="tuU29Inw2D7WNGMfxvO2-3" value="HTTP &#xa;(Web Sockets)" style="edgeStyle=orthogonalEdgeStyle;rounded=0;orthogonalLoop=1;jettySize=auto;entryX=0;entryY=0.75;entryDx=0;entryDy=0;" parent="1" source="tuU29Inw2D7WNGMfxvO2-1" target="tuU29Inw2D7WNGMfxvO2-2" edge="1">
          <mxGeometry x="-0.3142" relative="1" as="geometry">
            <mxPoint as="offset" />
          </mxGeometry>
        </mxCell>
        <mxCell id="tuU29Inw2D7WNGMfxvO2-1" value="&quot;Frontend&quot;&#xa;Finder" style="rounded=0;" parent="1" vertex="1">
          <mxGeometry x="90" y="220" width="110" height="45" as="geometry" />
        </mxCell>
        <mxCell id="RTibFlnrJpwxqpMlr8ko-7" value="HTTP&#xa;(JSON)" style="edgeStyle=orthogonalEdgeStyle;rounded=0;orthogonalLoop=1;jettySize=auto;" parent="1" source="tuU29Inw2D7WNGMfxvO2-2" target="RTibFlnrJpwxqpMlr8ko-1" edge="1">
          <mxGeometry relative="1" as="geometry" />
        </mxCell>
        <mxCell id="W9NK5JYCXoAsot6LfylK-11" value="HTTP&#xa;(JSON)" style="edgeStyle=orthogonalEdgeStyle;rounded=0;orthogonalLoop=1;jettySize=auto;" edge="1" parent="1" source="tuU29Inw2D7WNGMfxvO2-2" target="W9NK5JYCXoAsot6LfylK-10">
          <mxGeometry relative="1" as="geometry" />
        </mxCell>
        <mxCell id="W9NK5JYCXoAsot6LfylK-12" value="HTTP&#xa;(JSON)" style="edgeStyle=orthogonalEdgeStyle;rounded=0;orthogonalLoop=1;jettySize=auto;" edge="1" parent="1" source="tuU29Inw2D7WNGMfxvO2-2" target="W9NK5JYCXoAsot6LfylK-9">
          <mxGeometry relative="1" as="geometry" />
        </mxCell>
        <mxCell id="tuU29Inw2D7WNGMfxvO2-2" value="&quot;Coordinator&quot;&#xa;Backend" style="rounded=0;" parent="1" vertex="1">
          <mxGeometry x="310" y="180" width="120" height="45" as="geometry" />
        </mxCell>
        <mxCell id="RTibFlnrJpwxqpMlr8ko-1" value="&quot;Service&quot;&#xa;Object Detector" style="rounded=0;" parent="1" vertex="1">
          <mxGeometry x="310" y="80" width="120" height="50" as="geometry" />
        </mxCell>
        <mxCell id="RTibFlnrJpwxqpMlr8ko-6" value="HTTP&#xa;(JSON)" style="edgeStyle=orthogonalEdgeStyle;rounded=0;orthogonalLoop=1;jettySize=auto;exitX=0.5;exitY=1;exitDx=0;exitDy=0;" parent="1" source="W9NK5JYCXoAsot6LfylK-10" edge="1" target="-cWhQqO5P-u1q4kJBL4G-1">
          <mxGeometry relative="1" as="geometry">
            <mxPoint x="395" y="280" as="sourcePoint" />
            <mxPoint x="455" y="330" as="targetPoint" />
          </mxGeometry>
        </mxCell>
        <mxCell id="-cWhQqO5P-u1q4kJBL4G-1" value="OpenAI&#xa;(GPT-4o mini)" style="rounded=0;" parent="1" vertex="1">
          <mxGeometry x="310" y="360" width="120" height="45" as="geometry" />
        </mxCell>
        <mxCell id="W9NK5JYCXoAsot6LfylK-2" value="HTTP&#xa;(SPA)" style="edgeStyle=orthogonalEdgeStyle;rounded=0;orthogonalLoop=1;jettySize=auto;" edge="1" parent="1" source="W9NK5JYCXoAsot6LfylK-1" target="tuU29Inw2D7WNGMfxvO2-1">
          <mxGeometry relative="1" as="geometry" />
        </mxCell>
        <mxCell id="W9NK5JYCXoAsot6LfylK-1" value="User" style="shape=umlActor;verticalLabelPosition=bottom;verticalAlign=top;html=1;outlineConnect=0;" vertex="1" parent="1">
          <mxGeometry x="130" y="340" width="30" height="60" as="geometry" />
        </mxCell>
        <mxCell id="W9NK5JYCXoAsot6LfylK-5" value="HTTP&#xa;(SPA)" style="edgeStyle=orthogonalEdgeStyle;rounded=0;orthogonalLoop=1;jettySize=auto;" edge="1" parent="1" source="W9NK5JYCXoAsot6LfylK-3" target="W9NK5JYCXoAsot6LfylK-4">
          <mxGeometry relative="1" as="geometry" />
        </mxCell>
        <mxCell id="W9NK5JYCXoAsot6LfylK-3" value="Creator" style="shape=umlActor;verticalLabelPosition=bottom;verticalAlign=top;html=1;outlineConnect=0;" vertex="1" parent="1">
          <mxGeometry y="132" width="30" height="60" as="geometry" />
        </mxCell>
        <mxCell id="W9NK5JYCXoAsot6LfylK-8" value="HTTP&#xa;(Web Sockets)" style="edgeStyle=orthogonalEdgeStyle;rounded=0;orthogonalLoop=1;jettySize=auto;entryX=0;entryY=0.25;entryDx=0;entryDy=0;" edge="1" parent="1" source="W9NK5JYCXoAsot6LfylK-4" target="tuU29Inw2D7WNGMfxvO2-2">
          <mxGeometry x="-0.3333" relative="1" as="geometry">
            <mxPoint x="230" y="240" as="targetPoint" />
            <mxPoint as="offset" />
          </mxGeometry>
        </mxCell>
        <mxCell id="W9NK5JYCXoAsot6LfylK-4" value="&quot;Frontend&quot;&#xa;Recorder" style="rounded=0;" vertex="1" parent="1">
          <mxGeometry x="90" y="140" width="110" height="45" as="geometry" />
        </mxCell>
        <mxCell id="W9NK5JYCXoAsot6LfylK-9" value="&quot;Service&quot;&#xa;Embedding Creator" style="rounded=0;" vertex="1" parent="1">
          <mxGeometry x="500" y="180" width="120" height="45" as="geometry" />
        </mxCell>
        <mxCell id="W9NK5JYCXoAsot6LfylK-10" value="&quot;Service&quot;&#xa;Instruction Creator" style="rounded=0;" vertex="1" parent="1">
          <mxGeometry x="310" y="270" width="120" height="45" as="geometry" />
        </mxCell>
      </root>
    </mxGraphModel>
  </diagram>
  <diagram id="R1b79nPX2yO7Q978u314" name="Verteilungssicht">
    <mxGraphModel dx="864" dy="1687" grid="1" gridSize="10" guides="1" tooltips="1" connect="1" arrows="1" fold="1" page="1" pageScale="1" pageWidth="850" pageHeight="1100" math="0" shadow="0">
      <root>
        <mxCell id="ve9SR4LE6HnNgHV7tq88-0" />
        <mxCell id="ve9SR4LE6HnNgHV7tq88-1" parent="ve9SR4LE6HnNgHV7tq88-0" />
        <mxCell id="ve9SR4LE6HnNgHV7tq88-6" value="GitHub" style="rounded=0;align=left;verticalAlign=top;" parent="ve9SR4LE6HnNgHV7tq88-1" vertex="1">
          <mxGeometry x="594" y="-4.6" width="220" height="250" as="geometry" />
        </mxCell>
        <mxCell id="vsyF7FIyhOv4iitYQhwx-9" value="BärnHäckt-Org" style="rounded=0;align=left;verticalAlign=top;" vertex="1" parent="ve9SR4LE6HnNgHV7tq88-1">
          <mxGeometry x="640" y="15.79" width="154" height="134.21" as="geometry" />
        </mxCell>
        <mxCell id="vsyF7FIyhOv4iitYQhwx-0" value="Smartphone" style="rounded=0;align=left;verticalAlign=top;" vertex="1" parent="ve9SR4LE6HnNgHV7tq88-1">
          <mxGeometry x="37" y="-50" width="140" height="120" as="geometry" />
        </mxCell>
        <mxCell id="EGvlQT-T8iWcVB-wQNnj-3" value="External Services" style="rounded=0;align=left;verticalAlign=top;" parent="ve9SR4LE6HnNgHV7tq88-1" vertex="1">
          <mxGeometry x="47" y="207.4" width="140" height="80" as="geometry" />
        </mxCell>
        <mxCell id="ve9SR4LE6HnNgHV7tq88-4" value="Microsoft Azure" style="rounded=0;align=left;verticalAlign=top;" parent="ve9SR4LE6HnNgHV7tq88-1" vertex="1">
          <mxGeometry x="211" y="-80" width="379" height="470" as="geometry" />
        </mxCell>
        <mxCell id="ve9SR4LE6HnNgHV7tq88-9" value="" style="shape=cylinder;whiteSpace=wrap;boundedLbl=1;backgroundOutline=1;align=left;" parent="ve9SR4LE6HnNgHV7tq88-1" vertex="1">
          <mxGeometry x="685" y="40" width="60" height="80" as="geometry" />
        </mxCell>
        <mxCell id="ve9SR4LE6HnNgHV7tq88-10" value="" style="shape=cylinder;whiteSpace=wrap;boundedLbl=1;backgroundOutline=1;align=left;" parent="ve9SR4LE6HnNgHV7tq88-1" vertex="1">
          <mxGeometry x="695" y="50" width="60" height="80" as="geometry" />
        </mxCell>
        <mxCell id="ve9SR4LE6HnNgHV7tq88-11" value="" style="shape=cylinder;whiteSpace=wrap;boundedLbl=1;backgroundOutline=1;align=left;" parent="ve9SR4LE6HnNgHV7tq88-1" vertex="1">
          <mxGeometry x="705" y="60" width="60" height="80" as="geometry" />
        </mxCell>
        <mxCell id="ve9SR4LE6HnNgHV7tq88-15" value="Push Images" style="edgeStyle=orthogonalEdgeStyle;rounded=0;orthogonalLoop=1;jettySize=auto;entryX=1;entryY=0.5;entryDx=0;entryDy=0;exitX=0;exitY=0.75;exitDx=0;exitDy=0;" parent="ve9SR4LE6HnNgHV7tq88-1" source="ve9SR4LE6HnNgHV7tq88-13" target="ve9SR4LE6HnNgHV7tq88-19" edge="1">
          <mxGeometry x="-0.4237" relative="1" as="geometry">
            <mxPoint x="661" y="190" as="targetPoint" />
            <Array as="points">
              <mxPoint x="610" y="190" />
              <mxPoint x="610" y="110" />
            </Array>
            <mxPoint as="offset" />
          </mxGeometry>
        </mxCell>
        <mxCell id="ve9SR4LE6HnNgHV7tq88-18" value="Repos" style="text;strokeColor=none;fillColor=none;align=center;verticalAlign=middle;whiteSpace=wrap;rounded=0;" parent="ve9SR4LE6HnNgHV7tq88-1" vertex="1">
          <mxGeometry x="725" y="90" width="40" height="20" as="geometry" />
        </mxCell>
        <mxCell id="ve9SR4LE6HnNgHV7tq88-19" value="Azure&#xa;Container &#xa;Registry" style="shape=cylinder;boundedLbl=1;backgroundOutline=1;align=center;" parent="ve9SR4LE6HnNgHV7tq88-1" vertex="1">
          <mxGeometry x="470" y="70" width="60" height="80" as="geometry" />
        </mxCell>
        <mxCell id="ve9SR4LE6HnNgHV7tq88-25" value="Pull &#xa;Images" style="edgeStyle=orthogonalEdgeStyle;rounded=0;orthogonalLoop=1;jettySize=auto;startArrow=classic;startFill=1;endArrow=none;endFill=0;entryX=0.5;entryY=0;entryDx=0;entryDy=0;" parent="ve9SR4LE6HnNgHV7tq88-1" source="ve9SR4LE6HnNgHV7tq88-19" target="ve9SR4LE6HnNgHV7tq88-21" edge="1">
          <mxGeometry relative="1" as="geometry">
            <mxPoint x="471" y="90" as="targetPoint" />
          </mxGeometry>
        </mxCell>
        <mxCell id="ve9SR4LE6HnNgHV7tq88-21" value="Azure App Services &#xa;(Single Container)&#xa;" style="align=left;verticalAlign=top;" parent="ve9SR4LE6HnNgHV7tq88-1" vertex="1">
          <mxGeometry x="231" y="150" width="150" height="230" as="geometry" />
        </mxCell>
        <mxCell id="ve9SR4LE6HnNgHV7tq88-22" value="HTTP&#xa;(Web Socket)" style="edgeStyle=orthogonalEdgeStyle;rounded=0;orthogonalLoop=1;jettySize=auto;entryX=0;entryY=0.5;entryDx=0;entryDy=0;exitX=1;exitY=0.75;exitDx=0;exitDy=0;" parent="ve9SR4LE6HnNgHV7tq88-1" source="vsyF7FIyhOv4iitYQhwx-0" target="ve9SR4LE6HnNgHV7tq88-33" edge="1">
          <mxGeometry x="-0.2314" relative="1" as="geometry">
            <mxPoint x="150" y="140.00000000000023" as="sourcePoint" />
            <mxPoint x="220" y="100" as="targetPoint" />
            <Array as="points">
              <mxPoint x="200" y="40" />
              <mxPoint x="200" y="210" />
            </Array>
            <mxPoint as="offset" />
          </mxGeometry>
        </mxCell>
        <mxCell id="ve9SR4LE6HnNgHV7tq88-23" value="App Finder (PWA)" style="align=left;verticalAlign=top;" parent="ve9SR4LE6HnNgHV7tq88-1" vertex="1">
          <mxGeometry x="57" y="20" width="100" height="40" as="geometry" />
        </mxCell>
        <mxCell id="ve9SR4LE6HnNgHV7tq88-7" value="HTTP&#xa;(GET)" style="edgeStyle=orthogonalEdgeStyle;rounded=0;orthogonalLoop=1;jettySize=auto;exitX=1;exitY=0.5;exitDx=0;exitDy=0;" parent="ve9SR4LE6HnNgHV7tq88-1" source="vsyF7FIyhOv4iitYQhwx-0" target="ve9SR4LE6HnNgHV7tq88-20" edge="1">
          <mxGeometry relative="1" as="geometry">
            <mxPoint x="150" y="140.00000000000023" as="sourcePoint" />
          </mxGeometry>
        </mxCell>
        <mxCell id="ve9SR4LE6HnNgHV7tq88-26" value="HTTP&#xa;(Upload Files)" style="edgeStyle=orthogonalEdgeStyle;rounded=0;orthogonalLoop=1;jettySize=auto;exitX=0;exitY=0.25;exitDx=0;exitDy=0;entryX=1;entryY=0.75;entryDx=0;entryDy=0;" parent="ve9SR4LE6HnNgHV7tq88-1" source="ve9SR4LE6HnNgHV7tq88-13" target="ve9SR4LE6HnNgHV7tq88-20" edge="1">
          <mxGeometry x="0.401" relative="1" as="geometry">
            <mxPoint x="641" y="190" as="sourcePoint" />
            <mxPoint x="391" y="90" as="targetPoint" />
            <Array as="points">
              <mxPoint x="630" y="170" />
              <mxPoint x="630" y="40" />
            </Array>
            <mxPoint as="offset" />
          </mxGeometry>
        </mxCell>
        <mxCell id="EGvlQT-T8iWcVB-wQNnj-9" value="TCP (bolt)" style="edgeStyle=orthogonalEdgeStyle;rounded=0;orthogonalLoop=1;jettySize=auto;" parent="ve9SR4LE6HnNgHV7tq88-1" source="ve9SR4LE6HnNgHV7tq88-33" target="ve9SR4LE6HnNgHV7tq88-36" edge="1">
          <mxGeometry relative="1" as="geometry" />
        </mxCell>
        <mxCell id="ve9SR4LE6HnNgHV7tq88-33" value="Backend" style="align=left;verticalAlign=top;" parent="ve9SR4LE6HnNgHV7tq88-1" vertex="1">
          <mxGeometry x="249" y="190" width="115" height="40" as="geometry" />
        </mxCell>
        <mxCell id="ps98yUaIqCOWlhWfDeHu-5" value="Pull&lt;br style=&quot;padding: 0px; margin: 0px;&quot;&gt;Images" style="edgeStyle=orthogonalEdgeStyle;rounded=0;orthogonalLoop=1;jettySize=auto;html=1;entryX=0;entryY=0.5;entryDx=0;entryDy=0;exitX=0.5;exitY=1;exitDx=0;exitDy=0;" edge="1" parent="ve9SR4LE6HnNgHV7tq88-1" source="ve9SR4LE6HnNgHV7tq88-36" target="ps98yUaIqCOWlhWfDeHu-3">
          <mxGeometry relative="1" as="geometry">
            <mxPoint x="500" y="335.4000000000001" as="targetPoint" />
          </mxGeometry>
        </mxCell>
        <mxCell id="ve9SR4LE6HnNgHV7tq88-36" value="Azure Container App" style="align=left;verticalAlign=top;" parent="ve9SR4LE6HnNgHV7tq88-1" vertex="1">
          <mxGeometry x="431" y="164.61" width="150" height="90.79" as="geometry" />
        </mxCell>
        <mxCell id="-fB_g5majNYQMFWXUs0V-1" value="OpenAI&#xa;(GPT-4o mini)" style="rounded=0;" parent="ve9SR4LE6HnNgHV7tq88-1" vertex="1">
          <mxGeometry x="57" y="233.18999999999997" width="120" height="40" as="geometry" />
        </mxCell>
        <mxCell id="ve9SR4LE6HnNgHV7tq88-34" value="Embedding Creator" style="align=left;verticalAlign=top;" parent="ve9SR4LE6HnNgHV7tq88-1" vertex="1">
          <mxGeometry x="249" y="280.00000000000006" width="115" height="40" as="geometry" />
        </mxCell>
        <mxCell id="EGvlQT-T8iWcVB-wQNnj-6" value="HTTP&#xa;(REST)" style="endArrow=classic;entryX=1;entryY=0.5;entryDx=0;entryDy=0;edgeStyle=orthogonalEdgeStyle;rounded=0;exitX=0;exitY=0.5;exitDx=0;exitDy=0;" parent="ve9SR4LE6HnNgHV7tq88-1" source="tQM4B7NwUjD_WXrwwFGi-0" target="-fB_g5majNYQMFWXUs0V-1" edge="1">
          <mxGeometry width="50" height="50" relative="1" as="geometry">
            <mxPoint x="231.5" y="370.8333333333335" as="sourcePoint" />
            <mxPoint x="150" y="290.0000000000001" as="targetPoint" />
          </mxGeometry>
        </mxCell>
        <mxCell id="vsyF7FIyhOv4iitYQhwx-1" value="App Finder (PWA)" style="align=left;verticalAlign=top;" vertex="1" parent="ve9SR4LE6HnNgHV7tq88-1">
          <mxGeometry x="57" y="-25" width="100" height="40" as="geometry" />
        </mxCell>
        <mxCell id="vsyF7FIyhOv4iitYQhwx-7" value="" style="group" vertex="1" connectable="0" parent="ve9SR4LE6HnNgHV7tq88-1">
          <mxGeometry x="230" y="-50" width="150" height="120" as="geometry" />
        </mxCell>
        <mxCell id="ve9SR4LE6HnNgHV7tq88-20" value="Azure Static Web App" style="align=left;verticalAlign=top;" parent="vsyF7FIyhOv4iitYQhwx-7" vertex="1">
          <mxGeometry width="150" height="120" as="geometry" />
        </mxCell>
        <mxCell id="ve9SR4LE6HnNgHV7tq88-30" value="App Recoder (PWA)" style="align=left;verticalAlign=top;" parent="vsyF7FIyhOv4iitYQhwx-7" vertex="1">
          <mxGeometry x="17.5" y="25" width="115" height="40" as="geometry" />
        </mxCell>
        <mxCell id="vsyF7FIyhOv4iitYQhwx-5" value="App Finder (PWA)" style="align=left;verticalAlign=top;" vertex="1" parent="vsyF7FIyhOv4iitYQhwx-7">
          <mxGeometry x="17.5" y="70" width="115" height="40" as="geometry" />
        </mxCell>
        <mxCell id="vsyF7FIyhOv4iitYQhwx-10" value="" style="edgeStyle=orthogonalEdgeStyle;rounded=0;orthogonalLoop=1;jettySize=auto;startArrow=classic;startFill=1;endArrow=none;endFill=0;" edge="1" parent="ve9SR4LE6HnNgHV7tq88-1" target="vsyF7FIyhOv4iitYQhwx-9">
          <mxGeometry relative="1" as="geometry">
            <mxPoint x="765" y="115.4" as="targetPoint" />
            <mxPoint x="732" y="170" as="sourcePoint" />
          </mxGeometry>
        </mxCell>
        <mxCell id="tQM4B7NwUjD_WXrwwFGi-0" value="Instruction Creator" style="align=left;verticalAlign=top;" vertex="1" parent="ve9SR4LE6HnNgHV7tq88-1">
          <mxGeometry x="249" y="235.00000000000003" width="115" height="40" as="geometry" />
        </mxCell>
        <mxCell id="ps98yUaIqCOWlhWfDeHu-0" value="Object Detector" style="align=left;verticalAlign=top;" vertex="1" parent="ve9SR4LE6HnNgHV7tq88-1">
          <mxGeometry x="249" y="325.79" width="115" height="40" as="geometry" />
        </mxCell>
        <mxCell id="ps98yUaIqCOWlhWfDeHu-2" value="Neo4J Enterprise&#xa;Plugin: &#xa;   graph-data-science" style="align=left;verticalAlign=top;" vertex="1" parent="ve9SR4LE6HnNgHV7tq88-1">
          <mxGeometry x="448.5" y="195.4" width="115" height="50" as="geometry" />
        </mxCell>
        <mxCell id="ve9SR4LE6HnNgHV7tq88-13" value="" style="triangle;whiteSpace=wrap;align=left;" parent="ve9SR4LE6HnNgHV7tq88-1" vertex="1">
          <mxGeometry x="717" y="160.4" width="30" height="40" as="geometry" />
        </mxCell>
        <mxCell id="ve9SR4LE6HnNgHV7tq88-12" value="GitHub&#xa;Actions" style="text;strokeColor=none;fillColor=none;align=center;verticalAlign=middle;rounded=0;" parent="ve9SR4LE6HnNgHV7tq88-1" vertex="1">
          <mxGeometry x="712" y="205.4" width="40" height="20" as="geometry" />
        </mxCell>
        <mxCell id="ps98yUaIqCOWlhWfDeHu-3" value="Docker.io&#xa;Container &#xa;Registry" style="shape=cylinder;boundedLbl=1;backgroundOutline=1;align=center;" vertex="1" parent="ve9SR4LE6HnNgHV7tq88-1">
          <mxGeometry x="620" y="280" width="60" height="80" as="geometry" />
        </mxCell>
      </root>
    </mxGraphModel>
  </diagram>
</mxfile>
